<?xml version="1.0" encoding="UTF-8"?>
<svg id="_レイヤー_1" data-name="レイヤー_1" xmlns="http://www.w3.org/2000/svg" version="1.1" viewBox="0 0 297.78 389.41">
  <!-- Generator: Adobe Illustrator 30.1.0, SVG Export Plug-In . SVG Version: 2.1.1 Build 136)  -->
  <defs>
    <style>
      .st0 {
        fill: #1a2729;
      }

      .st1 {
        fill: #14282b;
      }

      .st2 {
        fill: #df953b;
      }

      .st3 {
        fill: #eca678;
      }

      .st4 {
        fill: #eeaa7d;
      }

      .st5 {
        fill: #ec9f3e;
      }

      .st6 {
        fill: #152526;
      }

      .st7 {
        fill: #182628;
      }

      .st8 {
        fill: #f5e8c6;
      }

      .st9 {
        fill: #fff;
      }

      .st10 {
        fill: #14272b;
      }

      .st11 {
        fill: #f3a43d;
      }

      .st12 {
        fill: #eda03f;
      }

      .st13 {
        fill: #e26a3a;
      }
    </style>
  </defs>
  <symbol id="chikumo" viewBox="0 0 297.78 389.41">
  <g>
    <g>
      <g>
        <path class="st2" d="M123.18,347.89c-3.14,7.02-23.01,4.87-21.86-1.17.45-2.34,5.72-2.58,8.58-4.59,1.67-1.18-.2-5.62,1.6-6.25,4.42-1.55,13.72,7.47,11.69,12.01Z"/>
        <path d="M112.56,355.27c-2.68,0-5.31-.39-7.46-1.07-7.23-2.27-6.97-6.73-6.72-8.04.59-3.11,3.78-4.17,6.33-5.02,1.06-.35,2.14-.72,2.95-1.15.01-.33,0-.76,0-1.05-.04-1.57-.12-4.84,2.85-5.88,4.09-1.43,9.01,1.83,11.98,5.06,3.52,3.83,4.8,7.94,3.43,11h0c-1.98,4.44-7.77,6.16-13.36,6.16ZM104.71,347.5c1.2.84,4.41,1.9,8.59,1.76,3.57-.12,6.51-1.19,7.14-2.6.13-.29-.11-1.87-2.01-4.09-1.72-2.01-3.57-3.16-4.77-3.63.04,1.71.04,4.17-2.03,5.63-1.53,1.08-3.38,1.7-5.02,2.25-.57.19-1.33.45-1.9.68Z"/>
      </g>
      <g>
        <path class="st12" d="M197.75,346.74c3.24,4.12-17.94,9.67-21.71.84-1.73-4.06,7.01-11.27,11.22-11.8,3.21,11.1,7.36,6.99,10.49,10.97Z"/>
        <path d="M185.93,355.28c-.25,0-.51,0-.76-.01-5.95-.19-10.17-2.5-11.89-6.52-.58-1.35-.91-3.57.79-6.53,2.48-4.33,8.71-8.91,12.81-9.43l2.55-.32.71,2.47c1.64,5.67,3.09,6.14,4.94,6.74,1.42.46,3.36,1.09,5.03,3.21h0c1.1,1.4,1.29,3.18.49,4.77-1.8,3.56-8.84,5.64-14.67,5.64ZM185.39,339.59c-3.09,1.71-6.75,5.47-6.58,6.86.75,1.75,3.06,2.43,4.85,2.68,4.05.57,8.25-.49,10.36-1.48-.23-.09-.49-.17-.8-.27-2.87-.93-5.64-2.28-7.84-7.79ZM195.39,348.59h0s0,0,0,0h0Z"/>
      </g>
    </g>
    <g>
      <g>
        <path class="st8" d="M192.04,70.53c36.92,8.23,67.71,33.89,81.1,69.05,5.26,13.81,6.34,29.44,5.3,44.41-2.08,29.94-19.41,55.78-46.11,68.7-14.3,6.92,12.63,13.52,13.71,38.4.23,5.33-1.73,10.99-6.88,11.62-3.86.47-10.23-1.49-10.68-6.14l-1.12-11.72c-.23-2.43-2.74-3.69-4.66-3.17-1.53.42-2.76,2.56-2.62,4.7,1.09,16.83-5.32,34.02-20.6,42.19-24.44,13.07-71.29,12.61-95.89,1.53-17.34-7.8-27.27-24.07-24.54-42.77.33-2.24-1.65-4.72-3.27-4.73-5.17-.03-4.6,7.18-5.14,12.18-.62,5.81-5.74,8.57-10.71,8.09-12.96-1.26-8.3-25.68,10.02-41.95,1.17-1.04,2.08-2.88,1.78-3.89s-.32-3.25-3.07-4.02c-7.45-2.1-19.39-12-25.53-16.71-27.88-32-29.77-81.74-6.7-117.8,13.69-21.4,35.12-37.4,59.67-44.49,4.91-1.42,10.88-4.49,15.32-4.69l4.07-2.2c23.7-2.48,47.26-2.41,70.67.22,2.42.1,4.36,1.3,5.89,3.18Z"/>
        <path d="M150.78,341.35c-18.36,0-36.43-3.11-48.42-8.51-19.09-8.59-29.16-26.2-26.28-45.94.05-.37-.29-.98-.58-1.26-1.04.3-1.39,2.55-1.66,6.68-.06.96-.13,1.91-.22,2.79-.84,7.79-7.83,11.35-13.98,10.76-4.55-.44-7.85-3.11-9.28-7.52-3.4-10.45,4.33-27.87,17.6-39.66.4-.35.69-.89.8-1.18-.03-.11-.05-.23-.08-.35-.22-1.05-.29-1.1-.83-1.26-7.03-1.98-17.13-9.88-23.82-15.1-.99-.78-1.91-1.49-2.72-2.11l-.24-.18-.2-.23c-28.27-32.45-31.2-83.5-6.96-121.38,14.19-22.18,35.98-38.43,61.36-45.75,1.62-.47,3.39-1.14,5.26-1.85,3.38-1.28,6.87-2.6,10.02-2.91l4.02-2.17.59-.06c23.78-2.49,47.74-2.42,71.22.21,2.74.15,5.23,1.33,7.26,3.46,38.05,8.81,68.77,35.17,82.29,70.69,4.86,12.77,6.71,28.14,5.48,45.69-2.17,31.15-20.04,57.76-47.79,71.19-2.23,1.08-2.48,1.75-2.48,1.76-.1.91,2.57,3.87,4.34,5.82,5.16,5.71,12.96,14.34,13.55,27.99.35,8.07-3.47,13.99-9.51,14.73-3.05.38-7.54-.38-10.7-2.92-1.96-1.57-3.11-3.62-3.33-5.91l-1.12-11.72c0-.08-.02-.24-.25-.4-.18-.13-.41-.17-.54-.17-.23.23-.56.9-.51,1.63,1.28,19.78-7.22,37.03-22.18,45.03-13.14,7.03-31.77,10.13-50.12,10.13ZM75.74,279.6h.05c1.55,0,3.15.83,4.37,2.25,1.45,1.69,2.15,3.9,1.85,5.91-2.48,16.98,6.26,32.16,22.81,39.61,22.74,10.23,68.42,11.83,93.25-1.44,15.37-8.22,19.9-25.72,19.02-39.35-.23-3.57,1.89-6.99,4.83-7.79,1.87-.51,3.97-.13,5.62,1.01,1.63,1.12,2.62,2.82,2.81,4.77l1.12,11.72c.02.24.09.98,1.11,1.8,1.63,1.31,4.44,1.86,6.21,1.65,3.62-.45,4.37-5.56,4.25-8.52-.5-11.49-7.15-18.85-12-24.22-3.64-4.03-6.51-7.21-5.77-11,.62-3.19,3.58-4.96,5.76-6.01,25.8-12.48,42.4-37.23,44.42-66.21,1.16-16.67-.56-31.18-5.11-43.13-12.91-33.92-42.43-59.04-78.95-67.19l-1.02-.23-.66-.81c-1.1-1.35-2.27-2.01-3.69-2.07l-.21-.02c-22.89-2.58-46.25-2.67-69.43-.28-1.61.76-3.22,1.51-4.83,2.27-2.38.11-5.69,1.36-8.89,2.58-1.9.72-3.87,1.47-5.73,2-23.98,6.92-44.57,22.27-57.97,43.22-22.78,35.6-20.14,83.49,6.24,113.99.76.59,1.61,1.25,2.52,1.96,5.93,4.63,15.87,12.39,21.76,14.05,4.09,1.15,4.81,4.52,5.07,5.79.02.11.04.21.07.29.69,2.4-.82,5.32-2.67,6.97-12.4,11.02-18.22,26.12-15.88,33.31.69,2.12,2.01,3.2,4.16,3.41,3.26.32,6.98-1.24,7.43-5.43.09-.8.14-1.66.2-2.54.3-4.61.81-12.33,7.89-12.33Z"/>
      </g>
      <path d="M192.53,73.71l-2.95-.65c-8.65-3.05-20.95-6.32-35.96-6.95-19.61-.81-35.43,3.24-45.31,6.63l-.58-1.83c-4.07-12.82-3.58-24.46,1.41-33.68,4.46-8.24,11.85-14.06,20.27-15.95,7.29-1.64,14.68-.07,20.81,4.41,5.23,3.83,6.97,11.06,8.36,16.88.63,2.62,1.68,6.99,2.62,7.39,0,0,0,0,.01,0,.67,0,1.82-1.46,2.84-2.74,2.75-3.46,6.9-8.68,16-7.79,6.77.66,12.03,5.36,14.07,12.58,1.84,6.5,1.48,13.5-1.04,20.24-.18.49-.37.98-.55,1.47ZM156.31,65.57c11.04,0,22.04.71,32.76,2.88,1.51-5.1,1.6-10.27.24-15.09-1.48-5.24-5.03-8.5-9.75-8.96-6.4-.62-9.05,2.71-11.6,5.93-1.84,2.31-3.76,4.68-6.87,4.63-4.72-.11-6.01-5.51-7.38-11.22-1.27-5.28-2.7-11.26-6.45-14.01-5.02-3.67-10.81-4.91-16.76-3.57-6.91,1.56-13.25,6.59-16.97,13.46-5.06,9.36-3.82,20.06-1.59,27.96,4.35-.21,8.81-.48,13.13-.74,10.32-.62,20.8-1.26,31.24-1.26Z"/>
      <path class="st13" d="M189.58,73.06c-11.58-1.52-24.7-2.61-39.13-2.74-14.4-.13-27.53.71-39.12,2.01-3.21-10.36-3.96-21.77,1.18-31.51,7.31-13.85,23.58-20.13,36.22-10.64,8.3,6.23,6.34,24.44,12.03,24.58,4.81.11,5.95-11.68,18.06-10.47,1.58.16,3.05.58,4.38,1.26,4.55,2.29,6.35,7.2,7.15,9.44,2.87,7.98.26,15.49-.79,18.09Z"/>
    </g>
  </g>
  <g>
    <path class="st3" d="M235.64,219.64c-8.4.96-15.77-3.27-19.26-9.52-4.01-7.19-2.71-15.57,2.4-21.83,5.87-7.19,14.99-9.47,23.22-5.63s12.99,11.9,11.45,20.74c-1.48,8.46-8,15.12-17.81,16.24Z"/>
    <path class="st4" d="M68.09,217.64c-5.86.55-11.16.03-14.99-2.72-4.76-3.41-7.12-8.21-7.47-14.2-.54-9.58,6.05-19.05,15.44-20.26,11.9-1.53,21.05,4.53,23.17,15.75,1.82,9.64-5.13,20.39-16.16,21.43Z"/>
  </g>
  <g>
    <path class="st6" d="M171.85,211.77c-3.89,8.86-13.18,11.97-21.34,12.17-8.85.22-17.83-3.21-22.22-11.95-3.2-6.38-3.12-16.03-.24-22.74,3.74-8.71,13.22-12.06,21.74-12.5s18.06,3.9,22.26,12.91c2.85,6.13,2.71,15.48-.21,22.11Z"/>
    <path class="st11" d="M164.86,190.8c9.12,10.57-29.45,8.95-30.73,4.8-.38-1.24-.03-3.24,1.19-4.81,7.17-9.22,21.98-8.75,29.54.01Z"/>
    <path class="st5" d="M166.97,204.03c-1.49,9.95-10.05,13.46-18.85,12.61-7.5-.73-14.42-3.78-14.89-12.69,11.25,2.92,21.38,2.07,33.74.08Z"/>
  </g>
  <g>
    <g>
      <path class="st7" d="M211.97,134.49c-2.49,4.32-8.15-4.65-21.11-2.72-1.26.19-3.41-.64-3.46-1.66-.04-.9.25-2.68,1.71-3.68,9.84-6.76,25.93,2.73,22.86,8.06Z"/>
      <path class="st0" d="M111.24,129.97c.27,4.86-7.26-1.62-18.99,5.14-1.43.82-3.76.72-4.28-.54-2.81-6.77,12-13,21.6-8.52,1.59.74,1.62,2.97,1.67,3.93Z"/>
    </g>
    <g>
      <path class="st1" d="M119.59,179.54c-3.07,7.16-9.54,10.92-16.08,10.74-7.42-.21-13.64-4.89-15.61-11.28-2.3-7.44.13-14.77,6.37-19.35,5.88-4.32,14.38-4.49,20.12-.1s8.45,12.37,5.19,19.99Z"/>
      <path class="st10" d="M188.71,188.35c-8.75-4.56-10.77-14.68-7.1-22.7s13.61-11.6,22.04-7.78,11.39,14.12,7.73,22.55-13.82,12.55-22.66,7.94Z"/>
      <path class="st9" d="M107.27,166.14c2.37-1.09,4.19.73,4.64,2.25.54,1.81-.25,3.62-1.88,4.34-1.75.76-3.7.11-4.42-1.44s-.6-4.11,1.66-5.15Z"/>
      <path class="st9" d="M199.1,166.31c2.13-1.13,4.05.24,4.75,1.56.95,1.78.28,3.91-1.4,4.72s-3.5.45-4.46-.79c-1.17-1.52-1.17-4.28,1.11-5.49Z"/>
    </g>
  </g>
  </symbol>
  <use href="#chikumo"/>
</svg>