<?xml version="1.0" encoding="UTF-8"?>
<svg data-full="1" id="_レイヤー_1" data-name="レイヤー 1" xmlns="http://www.w3.org/2000/svg" viewBox="0 0 204.99 262.72">
  <defs>
    <style>
      .cls-1 { fill: #eda97b; }
      .cls-2 { fill: #eca678; }
      .cls-3 { fill: #1a2728; }
      .cls-4 { fill: #15282c; }
      .cls-5 { fill: #f5e7c6; }
      .cls-6 { fill: #b1c3cc; }
      .cls-7 { fill: #d7d2be; }
      .cls-8 { fill: #162425; }
      .cls-9 { fill: #ea9e3f; }
      .cls-10 { fill: #eb9f3f; }
      .cls-11 { fill: #dbd4be; }
      .cls-12 { fill: #f3a43e; }
      .cls-13 { fill: #90a7b3; }
      .cls-14 { fill: #fefefe; }
      .cls-15 { fill: #de963d; }
      .cls-16 { fill: #12242a; }
      .cls-17 { fill: #e26b3b; }
      .cls-18 { fill: #829aa4; }
      .cls-19 { fill: #15282b; }
      .cls-20 { fill: #1c2929; }
    </style>
  </defs>
  <g id="NEAiP9.tif">
    <g>
      <path class="cls-14" d="M92.91,0l-1.35,1.64c-18.66,2.92-23.37,19.07-24.11,35.23-.2,2.17-.82,3.82-3.12,4.28C2.25,52.29-23.35,147.63,35.45,180.29c3.79,3.14,3.38,7.2-1.8,7.64-9.55,12.59-12.24,39.07,11.13,29.87,1.36-.22,2.5.2,3.2,1.37,4.22,9.59,7.67,16.59,18.32,20.32l.06,1.84c2.03,1.09,1.69,1.84.74,3.69.29.54.54,1.36.16,1.63-3.34,2.37-6.88,5.13-3.46,9.8,4.27,5.83,27.44,4.71,24.83-6.88.16-1.69.76-2.47,2.43-1.59,0-.57.13-1.43.5-1.48,5.28-.59,18.84-.63,24.07,0l.87,1.48,1.17,1.42c-2.03,11.18,12.97,11.83,20.42,9.29l1.26,1.11c.5-.55,1.24-1.04,2.21-1.48l-.49-1.47c1.85-4.07,3.48-9.22-2.4-10.1l-.06-1.72c-1.34-1.23-.97-2.31,0-3.69l-.1-1.74c10.31-3.87,15.08-10.37,19.11-20.22.76-1.49,2.2-1.91,3.78-1.73,24.89,10.03,19.61-22.96,7.11-32.47-.63-1.53-.42-3.32.9-4.44,18.53-8.81,28.43-26.42,33.51-46.01l2.06-1.87v129.88H0V0h92.91Z"/>
      <path class="cls-16" d="M96.6,0c10.55.81,15.51,5.73,18.55,15.33,20.03-8.15,27.89,4.01,29.27,22.56,32.52,11.85,59.49,36.87,60.57,74.28v20.66c-4.4,15.98-10.46,31.41-23.67,42.27-2.26,1.86-11.14,6.48-11.39,7.14-1.33,3.46,2.42,3.82,2.66,4.21,5.17,8.47,11.02,18.58,6.3,28.74-5.49,11.81-15.56,2.19-19.44,4.14-.73.37-4.81,10.68-8.28,14.21-4.3,4.39-9.16,5.17-12.54,7.77-.95,1.88-.96,1.96,0,3.69.79.65,4.84,1.77,5.19,2.72.72,2,.25,9.16-2.24,10.56-.76.56-1.49,1.06-2.21,1.48-9.03,3.58-26.69,1.79-22.86-11.81h-25.44c-1.47,0-.93,5.59-1.66,7.19-4.4,9.63-36.59,8.64-26.27-7.79.52-.82,3.58-1.96,3.97-2.36.44-1.42.05-2.49-.74-3.69-3.31-2.49-8.62-4.02-11.55-6.89-3.12-3.05-7.75-14.69-8.52-15.09-2.49-1.28-12.03,6.51-18.68-2.34-6.05-8.04-.25-22.74,5.01-30.1.6-.85,3.17-.64,3.42-1.01,2.79-4.17-8.13-7.8-11.12-10.3C-17.74,139.85.21,65.96,48.49,44.32c2.46-1.19,16-4.45,16.85-5.13s1.89-14.69,2.72-17.93c2.95-11.54,12.78-20.19,24.85-21.26h3.69Z"/>
      <path class="cls-14" d="M96.6,0h108.4v112.17c-4.24-26.29-15.21-47.39-38.01-61.96-4.32-2.76-22.73-10.11-23.53-11.13-2.91-3.72-.15-16.43-8.15-22.1-8.84-6.28-20.09.6-21,0-.59-.39-3.2-9.25-6.72-12.11l-10.99-4.87Z"/>
      <path class="cls-13" d="M66.36,241.32c1.72,1.3,4.94-.58.74,3.69l-.74-3.69Z"/>
      <path class="cls-18" d="M138.63,245.01c-1.2-.97-3.46-1.02,0-3.69v3.69Z"/>
      <path class="cls-6" d="M141.58,258.29c.4,2.36-1.45,1.17-2.21,1.48-.35-1.97.47-1.51,2.21-1.48Z"/>
      <path class="cls-5" d="M134.2,43.54c58.45,11.86,89.77,88.13,40.16,128.38-2.11,1.71-13.29,7.9-13.52,8.67-.5,1.69,10.64,14.4,12.03,19.44,1.38,4.98,2.94,16.76-5.78,15.45-10.1-1.52-3.91-19.02-10.26-16.11-2.27,1.04-.95,23.19-13.1,32.66-19.25,15.01-82.07,14.22-91.74-13.61-1.47-4.22-.63-17.64-3.07-18.39-4.84-1.48-3.66,8.3-4.28,10.32-1.48,4.79-9.12,7.35-12.24,2.58-7.54-11.51,13.46-29.59,13.21-31.59-.23-1.82-14.64-9.42-17.95-12.38-46.29-41.29-11.04-116.15,46.81-126.17l1.83-1.79c18.56-2.4,37.63-2.22,56.12.69l1.78,1.84Z"/>
      <path class="cls-17" d="M134.2,43.54c-16.24-3.3-43.47-3.55-59.73-.74-5.87-16.4,2.86-37.45,22.54-34.73,13.15,1.81,10.81,20.35,14.84,21.38,2.6.66,6.24-7.11,11.1-7.88,12-1.9,15.33,13.02,11.25,21.97Z"/>
      <path class="cls-15" d="M80.99,245.13c.23.21,3.1,5.18,3.11,5.49.24,6.22-14.64,5.94-16.65,2.52s6.52-4.65,6.93-5.28c.57-.87-.26-3.86.11-4.33.21-.26,6.26,1.37,6.51,1.59Z"/>
      <path class="cls-10" d="M131.25,243.53c.15.13-.14,3.07.8,4.01,1.56,1.56,13.72,6.73,1.04,7.78-21.2,1.75-4.57-14.15-1.84-11.79Z"/>
      <path class="cls-2" d="M164.31,124.89c17.15-1.88,21.87,25.65,4.14,28.55-22.15,3.62-23.57-26.43-4.14-28.55Z"/>
      <path class="cls-8" d="M116.24,152.49c-18.33,16.32-42.94-11.17-26.04-26.05,18.86-16.61,42.46,11.43,26.04,26.05Z"/>
      <path class="cls-1" d="M48.66,147.6c-.36.34,3,3.64-6.29,5.16-.24.04-.45-1.52-.72-1.52-1.65.03-2.86,1.59-3.67,1.47-18.78-2.63-14.76-31.54,5.84-27.94,9.7,1.7,14.25,14.66,8.22,22.14-.73.9-3.24.55-3.38.69Z"/>
      <path class="cls-4" d="M76.27,129.46c-16.34,11.58-27.65-15.68-12.31-21.54,14.83-5.66,24.7,12.76,12.31,21.54Z"/>
      <path class="cls-19" d="M134.74,107.18c18.82-3.47,19.86,24.58,2.67,24.86-14.74.24-16.23-22.36-2.67-24.86Z"/>
      <path class="cls-3" d="M147.97,86.58c7.68,8.94-6.09,2.5-7.68,2.15-2.63-.58-9.64,1.1-9.81-2.04-.29-5.11,14.24-3.9,17.49-.12Z"/>
      <path class="cls-20" d="M74.33,85.01c3.71,5.44-6.4,3.2-8.28,3.61-2.27.49-7.96,4.94-9.22,1.7-2.12-5.44,14.69-9.43,17.51-5.31Z"/>
      <path class="cls-12" d="M114.97,136.45c-.86,1.34-32.39,5.48-21-5.88,7.65-7.62,24.51.39,21,5.88Z"/>
      <path class="cls-9" d="M115.77,142.43c.97,13.9-29.04,9.13-25.08.38.52-1.14,21.76,2.17,25.08-.38Z"/>
      <path class="cls-7" d="M72.05,113.73c3.7-.91,4.33,5.81.58,5.83-2.98.01-3.58-5.09-.58-5.83Z"/>
      <path class="cls-11" d="M142.87,114.58c2.99,3.01-2.42,6.95-4.65,3.52-1.79-2.76,2.15-6.03,4.65-3.52Z"/>
    </g>
  </g>
</svg>
